<?xml version="1.0" standalone="no"?>
<!DOCTYPE svg PUBLIC "-//W3C//DTD SVG 1.1//EN" "http://www.w3.org/Graphics/SVG/1.1/DTD/svg11.dtd" >
<!--
2013-9-30: Created.
-->
<svg>
<metadata>
Created by iconfont
</metadata>
<defs>

<font id="iconfont" horiz-adv-x="1024" >
  <font-face
    font-family="iconfont"
    font-weight="500"
    font-stretch="normal"
    units-per-em="1024"
    ascent="896"
    descent="-128"
  />
    <missing-glyph />
    
    <glyph glyph-name="AIpaike" unicode="&#58992;" d="M814.545455 709.818182H698.181818v32.581818c0 18.618182-13.963636 27.927273-27.927273 27.927273-18.618182 0-27.927273-13.963636-27.927272-27.927273V709.818182H395.636364v32.581818c0 18.618182-13.963636 27.927273-27.927273 27.927273-18.618182 0-32.581818-13.963636-32.581818-27.927273V709.818182H218.763636C153.6 709.818182 97.745455 658.618182 97.745455 593.454545v-479.418181c0-65.163636 55.854545-121.018182 121.018181-121.018182h600.436364c65.163636 0 121.018182 55.854545 121.018182 121.018182V593.454545C935.563636 658.618182 879.709091 709.818182 814.545455 709.818182z m60.50909-595.781818c0-32.581818-27.927273-60.509091-60.50909-60.509091H218.763636c-32.581818 0-60.509091 27.927273-60.509091 60.509091V472.436364h716.8v-358.4z m0 418.909091H158.254545V593.454545c0 32.581818 27.927273 60.509091 60.509091 60.509091h121.018182v-27.927272c0-18.618182 13.963636-27.927273 27.927273-27.927273 18.618182 0 27.927273 13.963636 27.927273 27.927273v27.927272h237.381818v-27.927272c0-18.618182 13.963636-27.927273 27.927273-27.927273 18.618182 0 27.927273 13.963636 27.927272 27.927273v27.927272h121.018182c32.581818 0 60.509091-27.927273 60.509091-60.509091v-60.50909zM488.727273 290.909091h60.509091c18.618182 0 27.927273 13.963636 27.927272 27.927273 0 18.618182-13.963636 27.927273-27.927272 27.927272h-60.509091c-18.618182 0-27.927273-13.963636-27.927273-27.927272-4.654545-13.963636 9.309091-27.927273 27.927273-27.927273zM488.727273 174.545455h60.509091c18.618182 0 27.927273 13.963636 27.927272 27.927272 0 18.618182-13.963636 27.927273-27.927272 27.927273h-60.509091c-18.618182 0-27.927273-13.963636-27.927273-27.927273-4.654545-13.963636 9.309091-27.927273 27.927273-27.927272zM307.2 174.545455h60.509091c18.618182 0 27.927273 13.963636 27.927273 27.927272 0 18.618182-13.963636 27.927273-27.927273 27.927273H307.2c-18.618182 0-27.927273-13.963636-27.927273-27.927273s9.309091-27.927273 27.927273-27.927272zM665.6 290.909091h60.509091c18.618182 0 27.927273 13.963636 27.927273 27.927273 0 18.618182-13.963636 27.927273-27.927273 27.927272h-60.509091c-18.618182 0-27.927273-13.963636-27.927273-27.927272s13.963636-27.927273 27.927273-27.927273zM307.2 290.909091h60.509091c18.618182 0 27.927273 13.963636 27.927273 27.927273 0 18.618182-13.963636 27.927273-27.927273 27.927272H307.2c-18.618182 4.654545-27.927273-9.309091-27.927273-23.272727 0-18.618182 9.309091-32.581818 27.927273-32.581818zM665.6 174.545455h60.509091c18.618182 0 27.927273 13.963636 27.927273 27.927272 0 18.618182-13.963636 27.927273-27.927273 27.927273h-60.509091c-18.618182 0-27.927273-13.963636-27.927273-27.927273s13.963636-27.927273 27.927273-27.927272z"  horiz-adv-x="1024" />

    
    <glyph glyph-name="banjiguanli" unicode="&#58993;" d="M302.545455 337.454545h181.527272c18.618182 0 32.581818 13.963636 32.581818 32.581819s-13.963636 32.581818-32.581818 32.581818H302.545455c-18.618182 0-32.581818-13.963636-32.581819-32.581818-4.654545-18.618182 9.309091-32.581818 32.581819-32.581819zM302.545455 179.2h381.672727c18.618182 0 32.581818 13.963636 32.581818 32.581818s-13.963636 32.581818-32.581818 32.581818H302.545455c-18.618182 0-32.581818-13.963636-32.581819-32.581818-4.654545-18.618182 9.309091-32.581818 32.581819-32.581818zM865.745455 607.418182H698.181818V719.127273h195.490909c18.618182 0 32.581818 13.963636 32.581818 32.581818 0 18.618182-13.963636 32.581818-32.581818 32.581818h-744.727272c-18.618182 0-32.581818-13.963636-32.581819-32.581818 0-18.618182 13.963636-32.581818 32.581819-32.581818h167.563636v-111.709091H167.563636c-32.581818 0-55.854545-23.272727-55.854545-55.854546v-521.309091c0-32.581818 23.272727-55.854545 55.854545-55.854545h698.181819c32.581818 0 55.854545 23.272727 55.854545 55.854545V551.563636c0 32.581818-23.272727 55.854545-55.854545 55.854546zM381.672727 719.127273h246.690909v-111.709091H381.672727V719.127273z m474.763637-679.563637H176.872727V542.254545h674.909091v-502.690909z"  horiz-adv-x="1024" />

    
    <glyph glyph-name="churuxiaoguanli" unicode="&#58994;" d="M515.2 377.6m-448 0a448 448 0 1 1 896 0 448 448 0 1 1-896 0ZM448 435.2l64 32 64-32 32-32v-64l-96-64-64 32-32 64zM726.4 377.6c0 25.6 12.8 48 28.8 64 9.6 6.4 9.6 19.2 6.4 28.8l-41.6 67.2c-6.4 9.6-16 12.8-28.8 9.6-9.6-3.2-19.2-3.2-28.8-3.2-41.6 0-80 28.8-86.4 67.2-3.2 9.6-12.8 19.2-22.4 19.2h-80c-9.6 0-19.2-6.4-22.4-19.2-9.6-38.4-44.8-67.2-86.4-67.2-9.6 0-19.2 0-28.8 3.2-9.6 3.2-22.4 0-28.8-9.6l-41.6-67.2c-6.4-9.6-3.2-22.4 6.4-28.8 19.2-16 28.8-38.4 28.8-64s-12.8-48-28.8-64c-9.6-6.4-9.6-19.2-6.4-28.8l41.6-67.2c6.4-9.6 16-12.8 28.8-9.6 9.6 3.2 19.2 3.2 28.8 3.2 41.6 0 80-28.8 86.4-67.2 3.2-9.6 12.8-19.2 22.4-19.2h80c9.6 0 19.2 6.4 22.4 19.2 9.6 38.4 44.8 67.2 86.4 67.2 9.6 0 19.2 0 28.8-3.2 9.6-3.2 22.4 0 28.8 9.6l41.6 67.2c6.4 9.6 3.2 22.4-6.4 28.8-19.2 16-28.8 38.4-28.8 64z m-32-134.4c-25.6 6.4-51.2 3.2-76.8-6.4-28.8-12.8-54.4-35.2-67.2-64-3.2-3.2-3.2-6.4-3.2-12.8h-60.8c-6.4 19.2-16 38.4-32 51.2-32 28.8-73.6 41.6-115.2 32l-28.8 51.2c44.8 48 44.8 121.6 0 169.6l28.8 51.2c25.6-6.4 51.2-3.2 76.8 6.4 28.8 12.8 54.4 35.2 67.2 64 3.2 3.2 3.2 6.4 3.2 12.8H544c6.4-19.2 16-38.4 32-51.2 32-28.8 73.6-41.6 115.2-32l28.8-51.2c-44.8-48-44.8-121.6 0-169.6l-25.6-51.2z m-179.2 243.2c-60.8 0-108.8-48-108.8-108.8s48-108.8 108.8-108.8 108.8 48 108.8 108.8-48 108.8-108.8 108.8z m51.2-160c-12.8-12.8-32-22.4-51.2-22.4-19.2 0-38.4 6.4-51.2 22.4-12.8 12.8-22.4 32-22.4 51.2 0 19.2 6.4 38.4 22.4 51.2 12.8 12.8 32 22.4 51.2 22.4 19.2 0 38.4-6.4 51.2-22.4 12.8-12.8 22.4-32 22.4-51.2 0-19.2-6.4-38.4-22.4-51.2z m0 0"  horiz-adv-x="1024" />

    
    <glyph glyph-name="duizhang" unicode="&#58995;" d="M512 384m-448 0a448 448 0 1 1 896 0 448 448 0 1 1-896 0ZM448 313.6c-9.6 0-16-6.4-16-16s6.4-16 16-16h48v-32c0-9.6 6.4-16 16-16s16 6.4 16 16v32H576c9.6 0 16 6.4 16 16s-6.4 16-16 16h-48v32H576c9.6 0 16 6.4 16 16s-6.4 16-16 16h-38.4l51.2 51.2c6.4 6.4 6.4 16 0 22.4-6.4 6.4-16 6.4-22.4 0L512 400l-51.2 51.2c-6.4 6.4-16 6.4-22.4 0-6.4-6.4-6.4-16 0-22.4l51.2-51.2H448c-9.6 0-16-6.4-16-16s6.4-16 16-16h48v-32H448z m0 0M659.2 598.4h-35.2c0 22.4-19.2 41.6-44.8 41.6H448c-25.6 0-44.8-19.2-44.8-41.6h-35.2c-51.2 0-89.6-41.6-89.6-89.6v-291.2c0-51.2 41.6-89.6 89.6-89.6h291.2c51.2 0 89.6 41.6 89.6 89.6v291.2c0 48-41.6 89.6-89.6 89.6z m0-438.4h-294.4c-32 0-54.4 25.6-54.4 54.4v294.4c0 32 25.6 54.4 54.4 54.4h35.2c0-22.4 19.2-41.6 44.8-41.6H576c25.6 0 44.8 19.2 44.8 41.6h35.2c32 0 54.4-25.6 54.4-54.4v-294.4c3.2-28.8-19.2-54.4-51.2-54.4zM438.4 601.6c0 3.2 3.2 6.4 6.4 6.4h134.4c6.4 0 6.4-3.2 6.4-6.4v-38.4c0-3.2-3.2-6.4-6.4-6.4h-134.4c-6.4 0-6.4 3.2-6.4 6.4V601.6z"  horiz-adv-x="1024" />

    
    <glyph glyph-name="jiaoxueshipin" unicode="&#58997;" d="M795.927273 686.545455h-195.490909l93.090909 69.818181c4.654545 4.654545 9.309091 9.309091 13.963636 18.618182 0 9.309091 0 13.963636-4.654545 23.272727-4.654545 0-9.309091 4.654545-18.618182 4.654546s-13.963636 0-23.272727-4.654546L512 691.2 363.054545 798.254545c-13.963636 9.309091-32.581818 4.654545-41.890909-4.654545-9.309091-13.963636-4.654545-32.581818 4.654546-41.890909l97.745454-69.818182H228.072727C153.6 686.545455 93.090909 626.036364 93.090909 546.909091V104.727273c0-74.472727 60.509091-139.636364 134.981818-139.636364H791.272727c74.472727 0 134.981818 60.509091 134.981818 134.981818V546.909091c4.654545 79.127273-55.854545 139.636364-130.327272 139.636364zM875.054545 104.727273c0-41.890909-37.236364-79.127273-79.127272-79.127273H228.072727c-41.890909 0-79.127273 32.581818-79.127272 79.127273V546.909091c0 41.890909 37.236364 79.127273 79.127272 79.127273H791.272727c41.890909 0 79.127273-37.236364 79.127273-79.127273V104.727273zM679.563636 370.036364l-232.727272 134.981818c-9.309091 4.654545-23.272727 4.654545-27.927273 4.654545-23.272727 0-51.2-18.618182-51.2-51.2v-269.963636c0-32.581818 27.927273-51.2 51.2-51.2 9.309091 0 18.618182 4.654545 23.272727 9.309091l232.727273 134.981818c13.963636 9.309091 23.272727 27.927273 23.272727 41.890909 4.654545 18.618182-4.654545 37.236364-18.618182 46.545455z m-256-167.563637V449.163636l214.109091-121.018181-214.109091-125.672728z"  horiz-adv-x="1024" />

    
    <glyph glyph-name="kebiaochakan" unicode="&#59000;" d="M809.890909 765.672727H223.418182c-55.854545 0-102.4-46.545455-102.4-102.4v-572.509091c0-65.163636 51.2-116.363636 116.363636-116.363636h558.545455c65.163636 0 116.363636 51.2 116.363636 116.363636V663.272727c0 55.854545-46.545455 102.4-102.4 102.4zM172.218182 649.309091c0 37.236364 27.927273 65.163636 65.163636 65.163636h558.545455c37.236364 0 65.163636-27.927273 65.163636-65.163636v-93.090909H172.218182v93.090909z m688.872727-558.545455c0-37.236364-27.927273-65.163636-65.163636-65.163636h-558.545455c-37.236364 0-65.163636 27.927273-65.163636 65.163636V505.018182h684.218182l4.654545-414.254546zM446.836364 365.381818c18.618182 0 32.581818 13.963636 32.581818 32.581818s-13.963636 32.581818-32.581818 32.581819c-18.618182 0-32.581818-13.963636-32.581819-32.581819s13.963636-32.581818 32.581819-32.581818zM446.836364 141.963636c18.618182 0 32.581818 13.963636 32.581818 32.581819s-13.963636 32.581818-32.581818 32.581818c-18.618182 0-32.581818-13.963636-32.581819-32.581818s13.963636-32.581818 32.581819-32.581819zM446.836364 253.672727c18.618182 0 32.581818 13.963636 32.581818 32.581818s-13.963636 32.581818-32.581818 32.581819c-18.618182 0-32.581818-13.963636-32.581819-32.581819s13.963636-32.581818 32.581819-32.581818zM307.2 253.672727c18.618182 0 32.581818 13.963636 32.581818 32.581818s-13.963636 32.581818-32.581818 32.581819c-18.618182 0-32.581818-13.963636-32.581818-32.581819s13.963636-32.581818 32.581818-32.581818zM307.2 365.381818c18.618182 0 32.581818 13.963636 32.581818 32.581818S325.818182 430.545455 307.2 430.545455c-18.618182 0-32.581818-13.963636-32.581818-32.581819s13.963636-32.581818 32.581818-32.581818zM307.2 141.963636c18.618182 0 32.581818 13.963636 32.581818 32.581819s-13.963636 37.236364-32.581818 37.236363c-18.618182 0-32.581818-13.963636-32.581818-32.581818s13.963636-37.236364 32.581818-37.236364zM726.109091 253.672727c18.618182 0 32.581818 13.963636 32.581818 32.581818s-13.963636 32.581818-32.581818 32.581819-32.581818-13.963636-32.581818-32.581819 13.963636-32.581818 32.581818-32.581818zM726.109091 365.381818c18.618182 0 32.581818 13.963636 32.581818 32.581818s-13.963636 32.581818-32.581818 32.581819-32.581818-13.963636-32.581818-32.581819 13.963636-32.581818 32.581818-32.581818zM586.472727 141.963636c18.618182 0 32.581818 13.963636 32.581818 32.581819s-13.963636 32.581818-32.581818 32.581818c-18.618182 0-32.581818-13.963636-32.581818-32.581818s13.963636-32.581818 32.581818-32.581819zM726.109091 141.963636c18.618182 0 32.581818 13.963636 32.581818 32.581819s-13.963636 32.581818-32.581818 32.581818-32.581818-13.963636-32.581818-32.581818 13.963636-32.581818 32.581818-32.581819zM586.472727 365.381818c18.618182 0 32.581818 13.963636 32.581818 32.581818s-13.963636 32.581818-32.581818 32.581819c-18.618182 0-32.581818-13.963636-32.581818-32.581819s13.963636-32.581818 32.581818-32.581818zM586.472727 253.672727c18.618182 0 32.581818 13.963636 32.581818 32.581818s-13.963636 32.581818-32.581818 32.581819c-18.618182 0-32.581818-13.963636-32.581818-32.581819s13.963636-32.581818 32.581818-32.581818z"  horiz-adv-x="1024" />

    
    <glyph glyph-name="qianfeitixing" unicode="&#59001;" d="M512 384m-448 0a448 448 0 1 1 896 0 448 448 0 1 1-896 0ZM275.2 582.4h473.6v-92.8H275.2zM700.8 604.8H323.2C288 604.8 256 576 256 537.6v-307.2c0-38.4 32-67.2 67.2-67.2h374.4c38.4 0 67.2 32 67.2 67.2v307.2c3.2 38.4-28.8 67.2-64 67.2z m32-374.4c0-19.2-16-35.2-35.2-35.2H323.2c-19.2 0-35.2 16-35.2 35.2v240h444.8v-240z m0 272H291.2v35.2c0 19.2 16 35.2 35.2 35.2h374.4c19.2 0 35.2-16 35.2-35.2v-35.2z m0 0M528 262.4c0-9.6-6.4-16-19.2-16-9.6 0-19.2 6.4-19.2 16s6.4 16 19.2 16c9.6 3.2 19.2-6.4 19.2-16zM528 403.2v-89.6c0-9.6-6.4-16-19.2-16-9.6 0-19.2 6.4-19.2 16v89.6c0 9.6 6.4 16 19.2 16 9.6 0 19.2-6.4 19.2-16z"  horiz-adv-x="1024" />

    
    <glyph glyph-name="shoufeibiaozhunguanli" unicode="&#59002;" d="M512 384m-448 0a448 448 0 1 1 896 0 448 448 0 1 1-896 0ZM748.8 588.8c-12.8 12.8-28.8 19.2-48 19.2H323.2c-19.2 0-35.2-6.4-48-19.2-12.8-12.8-19.2-28.8-19.2-48v-313.6c0-19.2 6.4-35.2 19.2-48 12.8-12.8 28.8-19.2 48-19.2h377.6c19.2 0 35.2 6.4 48 19.2 12.8 12.8 19.2 28.8 19.2 48v313.6c0 19.2-6.4 35.2-19.2 48z m-16-105.6H544c-54.4 0-99.2-44.8-99.2-99.2s44.8-99.2 99.2-99.2h188.8V224c0-6.4-3.2-12.8-9.6-19.2-6.4-6.4-12.8-9.6-19.2-9.6H320c-16 0-28.8 12.8-28.8 28.8V544c0 16 12.8 28.8 28.8 28.8h384c6.4 0 16-3.2 19.2-9.6 6.4-6.4 9.6-12.8 9.6-19.2v-60.8zM732.8 320h-192c-35.2 0-64 28.8-64 64s28.8 64 64 64h192v-128zM547.2 384c0-12.8 12.8-25.6 25.6-25.6s25.6 12.8 25.6 25.6-12.8 25.6-25.6 25.6c-16 0-25.6-12.8-25.6-25.6z m0 0M748.8 588.8c-12.8 12.8-28.8 19.2-48 19.2H323.2c-19.2 0-35.2-6.4-48-19.2-12.8-12.8-19.2-28.8-19.2-48v-313.6c0-19.2 6.4-35.2 19.2-48 12.8-12.8 28.8-19.2 48-19.2h377.6c19.2 0 35.2 6.4 48 19.2 12.8 12.8 19.2 28.8 19.2 48v313.6c0 19.2-6.4 35.2-19.2 48z m-16-105.6H544c-54.4 0-99.2-44.8-99.2-99.2s44.8-99.2 99.2-99.2h188.8V224c0-6.4-3.2-12.8-9.6-19.2-6.4-6.4-12.8-9.6-19.2-9.6H320c-16 0-28.8 12.8-28.8 28.8V544c0 16 12.8 28.8 28.8 28.8h384c6.4 0 16-3.2 19.2-9.6 6.4-6.4 9.6-12.8 9.6-19.2v-60.8zM732.8 320h-192c-35.2 0-64 28.8-64 64s28.8 64 64 64h192v-128zM550.4 380.8c0-16 12.8-28.8 28.8-28.8s28.8 12.8 28.8 28.8-12.8 28.8-28.8 28.8-28.8-12.8-28.8-28.8z m0 0"  horiz-adv-x="1024" />

    
    <glyph glyph-name="shouzhijiluguanli" unicode="&#59003;" d="M512 384m-448 0a448 448 0 1 1 896 0 448 448 0 1 1-896 0ZM793.6 377.6c-3.2 12.8-9.6 25.6-19.2 32l-44.8 35.2c-9.6 6.4-19.2 9.6-28.8 9.6-16 0-28.8-6.4-38.4-19.2l-131.2-172.8v-3.2c-3.2-3.2-3.2-6.4-3.2-9.6l-19.2-118.4c0-6.4 0-12.8 6.4-16 3.2-3.2 6.4-3.2 9.6-3.2h6.4l115.2 48c3.2 0 6.4 3.2 6.4 6.4l131.2 172.8c6.4 12.8 9.6 25.6 9.6 38.4zM630.4 198.4l-3.2-6.4-25.6-9.6-54.4-22.4 9.6 67.2 3.2 16 99.2 131.2 67.2-51.2zM755.2 364.8l-9.6-12.8-64 48 9.6 9.6c3.2 3.2 6.4 6.4 9.6 6.4 3.2 0 6.4 0 9.6-3.2l44.8-32c3.2-3.2 3.2-6.4 6.4-9.6-3.2 0-3.2-3.2-6.4-6.4zM582.4 454.4c0 9.6-6.4 19.2-12.8 19.2h-188.8c-6.4 0-12.8-6.4-12.8-19.2 0-9.6 6.4-19.2 12.8-19.2h188.8c6.4 0 12.8 9.6 12.8 19.2zM496 339.2c0 9.6-6.4 19.2-12.8 19.2h-102.4c-6.4 0-12.8-6.4-12.8-19.2 0-9.6 6.4-19.2 12.8-19.2h102.4c6.4 3.2 12.8 9.6 12.8 19.2zM467.2 150.4h-131.2c-9.6 0-19.2 9.6-19.2 19.2V550.4c0 6.4 3.2 9.6 6.4 12.8 3.2 3.2 9.6 6.4 12.8 6.4h377.6c9.6 0 19.2-9.6 19.2-19.2v-67.2c0-9.6 6.4-16 16-16s16 6.4 16 16v67.2c0 16-6.4 28.8-16 38.4-6.4 12.8-19.2 19.2-35.2 19.2H336c-16 0-28.8-6.4-38.4-16-9.6-12.8-16-25.6-16-41.6v-380.8c0-28.8 25.6-54.4 54.4-54.4h131.2c9.6 0 16 6.4 16 16 3.2 12.8-6.4 19.2-16 19.2z m0 0"  horiz-adv-x="1024" />

    
    <glyph glyph-name="shouzhixiangmuguanli" unicode="&#59004;" d="M512 384m-448 0a448 448 0 1 1 896 0 448 448 0 1 1-896 0ZM656 595.2h-35.2c0 22.4-19.2 41.6-41.6 41.6h-128c-22.4 0-41.6-19.2-41.6-41.6h-35.2c-48 0-89.6-41.6-89.6-89.6v-284.8c0-48 41.6-89.6 89.6-89.6h284.8c48 0 89.6 41.6 89.6 89.6v284.8c-3.2 48-44.8 89.6-92.8 89.6z m0-428.8h-288c-28.8 0-54.4 25.6-54.4 54.4v288c0 28.8 25.6 54.4 54.4 54.4h35.2c0-22.4 19.2-41.6 44.8-41.6h128c25.6 0 44.8 19.2 44.8 41.6h35.2c28.8 0 54.4-25.6 54.4-54.4v-288c0-32-25.6-54.4-54.4-54.4zM400 262.4c-3.2 0-6.4 0-9.6 3.2-9.6 6.4-9.6 19.2-3.2 25.6l83.2 105.6c6.4 9.6 16 9.6 25.6 3.2l48-38.4 70.4 92.8c6.4 9.6 16 9.6 25.6 3.2 9.6-6.4 9.6-16 3.2-25.6l-80-105.6c-3.2-3.2-6.4-6.4-12.8-6.4-3.2 0-9.6 0-12.8 3.2l-48 38.4-73.6-92.8c-6.4-3.2-12.8-6.4-16-6.4z m0 0M438.4 595.2c0 3.2 3.2 6.4 6.4 6.4H576c6.4 0 6.4-3.2 6.4-6.4v-35.2c0-3.2-3.2-6.4-6.4-6.4h-131.2c-6.4 0-6.4 3.2-6.4 6.4V595.2z"  horiz-adv-x="1024" />

    
    <glyph glyph-name="shouji" unicode="&#59005;" d="M512 377.6m-448 0a448 448 0 1 1 896 0 448 448 0 1 1-896 0ZM708.896 148.544h-396.8v108.8h396.8zM361.6 115.2h304c35.2 0 67.2 28.8 67.2 67.2V572.8C732.8 608 704 640 665.6 640h-304c-35.2 0-67.2-28.8-67.2-67.2v-393.6c0-35.2 28.8-64 67.2-64z m-35.2 457.6c0 19.2 16 32 32 32h304c19.2 0 32-16 32-32v-294.4H326.4v294.4z m0-326.4h368v-64c0-19.2-16-32-32-32h-304c-19.2 0-32 16-32 32v64z m0 0M512 201.6m-25.6 0a25.6 25.6 0 1 1 51.2 0 25.6 25.6 0 1 1-51.2 0Z"  horiz-adv-x="1024" />

    
    <glyph glyph-name="shualian" unicode="&#59006;" d="M512 368m-448 0a448 448 0 1 1 896 0 448 448 0 1 1-896 0ZM512 416m-128 0a128 128 0 1 1 256 0 128 128 0 1 1-256 0ZM329.6 243.2c9.6 0 19.2 6.4 19.2 16s-9.6 16-19.2 16h-28.8v28.8c0 9.6-9.6 19.2-19.2 19.2s-19.2-9.6-19.2-19.2v-44.8c0-9.6 9.6-19.2 19.2-19.2h48v3.2zM281.6 505.6c9.6 0 19.2 9.6 19.2 19.2v28.8h28.8c9.6 0 19.2 9.6 19.2 19.2s-9.6 19.2-19.2 19.2H281.6c-9.6 0-19.2-9.6-19.2-19.2v-48c0-3.2 3.2-9.6 6.4-12.8 3.2-6.4 9.6-6.4 12.8-6.4zM745.6 323.2c-9.6 0-19.2-6.4-19.2-19.2v-28.8h-28.8c-9.6 0-19.2-9.6-19.2-19.2s9.6-19.2 19.2-19.2h48c9.6 0 19.2 9.6 19.2 19.2v48c-3.2 12.8-9.6 19.2-19.2 19.2zM656 249.6c-19.2 19.2-41.6 32-64 41.6l-3.2 3.2c9.6 6.4 16 12.8 25.6 19.2 54.4 54.4 54.4 144 0 198.4-54.4 54.4-144 54.4-198.4 0-25.6-25.6-41.6-64-41.6-99.2 0-38.4 16-73.6 41.6-99.2 6.4-6.4 16-12.8 25.6-19.2h-3.2c-25.6-9.6-44.8-25.6-64-41.6-19.2-19.2-32-41.6-44.8-64-9.6-25.6-16-51.2-16-80 0-9.6 9.6-19.2 19.2-19.2s19.2 9.6 19.2 19.2c0 92.8 73.6 166.4 166.4 166.4s166.4-73.6 166.4-166.4c0-9.6 9.6-19.2 19.2-19.2s19.2 9.6 19.2 19.2c-6.4 51.2-25.6 102.4-67.2 140.8z m-38.4 144c-9.6-48-54.4-86.4-102.4-86.4-28.8 0-54.4 12.8-73.6 32-35.2 35.2-38.4 89.6-12.8 131.2 28.8 41.6 83.2 57.6 128 38.4 44.8-16 70.4-67.2 60.8-115.2zM745.6 585.6h-48c-9.6 0-19.2-9.6-19.2-19.2s9.6-19.2 19.2-19.2h28.8v-28.8c0-9.6 9.6-19.2 19.2-19.2s19.2 9.6 19.2 19.2v48c-3.2 12.8-9.6 19.2-19.2 19.2z"  horiz-adv-x="1024" />

    
    <glyph glyph-name="wenjianguanli" unicode="&#59007;" d="M749.381818 258.327273h-465.454545c-9.309091 0-23.272727-4.654545-27.927273-13.963637-4.654545-9.309091-4.654545-23.272727 0-32.581818 4.654545-9.309091 13.963636-13.963636 27.927273-13.963636h465.454545c13.963636 0 23.272727 4.654545 27.927273 13.963636 4.654545 9.309091 4.654545 23.272727 0 32.581818-4.654545 9.309091-18.618182 13.963636-27.927273 13.963637zM833.163636 635.345455h-349.090909v23.272727c0 51.2-41.890909 88.436364-88.436363 88.436363H200.145455c-51.2 0-88.436364-37.236364-93.09091-88.436363v-577.163637c0-51.2 41.890909-88.436364 88.436364-88.436363h637.672727c51.2 0 88.436364 41.890909 88.436364 88.436363v465.454546c4.654545 46.545455-37.236364 88.436364-88.436364 88.436364z m27.927273-553.89091c0-13.963636-13.963636-27.927273-27.927273-27.927272H200.145455c-13.963636 0-27.927273 13.963636-27.927273 27.927272V658.618182c0 13.963636 13.963636 27.927273 27.927273 27.927273h200.145454c13.963636 0 27.927273-13.963636 27.927273-27.927273v-55.854546c-4.654545-18.618182 9.309091-32.581818 27.927273-32.581818h377.018181c13.963636 0 27.927273-13.963636 27.927273-27.927273v-460.8zM749.381818 430.545455h-465.454545c-9.309091 0-23.272727-4.654545-27.927273-13.963637-4.654545-9.309091-4.654545-23.272727 0-32.581818 4.654545-9.309091 13.963636-13.963636 27.927273-13.963636h465.454545c13.963636 0 23.272727 4.654545 27.927273 13.963636 4.654545 9.309091 4.654545 23.272727 0 32.581818-4.654545 9.309091-18.618182 13.963636-27.927273 13.963637z"  horiz-adv-x="1024" />

    
    <glyph glyph-name="xiaofeichongzhi" unicode="&#59008;" d="M423.563636 579.490909c-13.963636 13.963636-32.581818 13.963636-41.890909 0-13.963636-9.309091-13.963636-27.927273-4.654545-41.890909l102.4-102.4v-4.654545H400.290909c-13.963636 0-27.927273-9.309091-27.927273-27.927273s13.963636-27.927273 27.927273-27.927273h79.127273v-51.2H400.290909c-13.963636-4.654545-27.927273-18.618182-27.927273-32.581818s13.963636-27.927273 27.927273-27.927273h79.127273v-83.781818c0-18.618182 13.963636-27.927273 27.927273-27.927273s27.927273 13.963636 27.927272 27.927273v83.781818h83.781818c18.618182 0 27.927273 13.963636 27.927273 27.927273s-13.963636 27.927273-27.927273 27.927273h-83.781818v51.2h83.781818c18.618182 0 27.927273 13.963636 27.927273 27.927272s-4.654545 32.581818-23.272727 32.581819h-83.781818l102.4 107.054545c9.309091 13.963636 9.309091 32.581818 0 41.890909-13.963636 9.309091-32.581818 9.309091-41.890909 0l-88.436364-93.090909-88.436364 93.090909zM670.254545 607.418182H744.727273v-74.472727c0-18.618182 13.963636-27.927273 27.927272-27.927273s27.927273 13.963636 27.927273 27.927273V607.418182h74.472727c18.618182 0 27.927273 13.963636 27.927273 27.927273 0 18.618182-13.963636 27.927273-27.927273 27.927272h-74.472727V742.4c0 18.618182-13.963636 27.927273-27.927273 27.927273s-27.927273-13.963636-27.927272-27.927273v-74.472727h-74.472728c-18.618182 0-27.927273-13.963636-27.927272-27.927273 0-18.618182 9.309091-32.581818 27.927272-32.581818zM902.981818 393.309091c-4.654545 4.654545-13.963636 9.309091-27.927273 9.309091-18.618182 0-27.927273-13.963636-27.927272-27.927273 0-186.181818-148.945455-335.127273-335.127273-335.127273-88.436364 0-172.218182 37.236364-237.381818 97.745455-65.163636 65.163636-97.745455 148.945455-97.745455 237.381818C176.872727 560.872727 325.818182 709.818182 512 709.818182h9.309091c18.618182 0 27.927273 13.963636 27.927273 27.927273 0 18.618182-13.963636 27.927273-27.927273 27.927272H512c-107.054545 0-204.8-41.890909-279.272727-116.363636-74.472727-74.472727-116.363636-172.218182-116.363637-279.272727s41.890909-204.8 116.363637-279.272728c74.472727-74.472727 172.218182-116.363636 279.272727-116.363636 218.763636 0 395.636364 176.872727 395.636364 395.636364 0 9.309091 0 18.618182-4.654546 23.272727z"  horiz-adv-x="1024" />

    
    <glyph glyph-name="xiaoxitongzhi" unicode="&#59009;" d="M926.254545 225.745455c-4.654545 13.963636-9.309091 27.927273-23.272727 32.581818l-97.745454 102.4-37.236364 167.563636c-13.963636 60.509091-46.545455 111.709091-93.090909 148.945455-51.2 41.890909-111.709091 69.818182-172.218182 79.127272h-9.309091v4.654546C474.763636 812.218182 423.563636 844.8 372.363636 830.836364c-23.272727-4.654545-46.545455-18.618182-60.509091-41.890909-13.963636-23.272727-18.618182-46.545455-13.963636-69.818182v-4.654546s-4.654545-4.654545-9.309091-4.654545c-46.545455-32.581818-93.090909-83.781818-116.363636-144.290909-27.927273-55.854545-32.581818-116.363636-23.272727-176.872728l37.236363-167.563636-46.545454-144.290909c-4.654545-18.618182 0-41.890909 13.963636-55.854545 9.309091-13.963636 32.581818-18.618182 46.545455-9.309091l209.454545 46.545454c9.309091-32.581818 32.581818-60.509091 60.509091-79.127273 23.272727-13.963636 46.545455-23.272727 74.472727-23.272727 9.309091 0 23.272727 0 32.581818 4.654546 37.236364 9.309091 65.163636 27.927273 88.436364 60.509091 18.618182 27.927273 23.272727 65.163636 18.618182 97.745454l209.454545 46.545455c13.963636 0 27.927273 9.309091 32.581818 23.272727 4.654545 9.309091 4.654545 23.272727 0 37.236364zM623.709091 104.727273c0-41.890909-23.272727-79.127273-60.509091-88.436364-41.890909-4.654545-79.127273 18.618182-93.090909 55.854546l153.6 32.581818z m-414.254546 297.890909C190.836364 505.018182 237.381818 607.418182 325.818182 663.272727c18.618182 9.309091 32.581818 18.618182 51.2 23.272728h4.654545c4.654545 0 4.654545 0 4.654546 4.654545h4.654545c4.654545 0 9.309091 4.654545 9.309091 4.654545h88.436364c102.4-13.963636 186.181818-83.781818 218.763636-181.527272l41.890909-176.872728c0-4.654545 4.654545-9.309091 9.309091-13.963636l107.054546-111.709091-665.6-144.290909 46.545454 144.290909v13.963637l-37.236364 176.872727zM428.218182 756.363636H414.254545c-13.963636 0-27.927273-4.654545-41.890909-9.309091h-9.309091-4.654545c4.654545 9.309091 13.963636 23.272727 27.927273 23.272728h9.309091c13.963636 4.654545 23.272727-4.654545 32.581818-13.963637z"  horiz-adv-x="1024" />

    
    <glyph glyph-name="susheguanli" unicode="&#59010;" d="M512 377.6m-448 0a448 448 0 1 1 896 0 448 448 0 1 1-896 0ZM416 179.2h192v32l-32 64-64 32h-32l-32-32zM512 332.8c-60.8 0-112-51.2-112-112v-54.4h220.8V224c3.2 60.8-48 108.8-108.8 108.8z m70.4-144h-140.8V224c0 38.4 32 70.4 70.4 70.4s70.4-32 70.4-70.4v-35.2zM579.2 460.8h6.4c16 0 28.8 12.8 28.8 28.8s-12.8 28.8-28.8 28.8h-6.4c-16 0-28.8-12.8-28.8-28.8s12.8-28.8 28.8-28.8zM444.8 460.8h6.4c16 0 28.8 12.8 28.8 28.8s-12.8 28.8-28.8 28.8h-6.4c-16 0-28.8-12.8-28.8-28.8 3.2-16 12.8-28.8 28.8-28.8zM579.2 374.4h6.4c16 0 28.8 12.8 28.8 28.8s-12.8 28.8-28.8 28.8h-6.4c-16 0-28.8-12.8-28.8-28.8s12.8-28.8 28.8-28.8zM444.8 374.4h6.4c16 0 28.8 12.8 28.8 28.8s-12.8 28.8-28.8 28.8h-6.4c-16 0-28.8-12.8-28.8-28.8s12.8-28.8 28.8-28.8zM748.8 188.8h-35.2V585.6c0 12.8-9.6 22.4-19.2 22.4H329.6c-9.6 0-19.2-9.6-19.2-22.4v-400H275.2c-9.6 0-19.2-9.6-19.2-19.2s9.6-19.2 19.2-19.2h470.4c9.6 0 19.2 9.6 19.2 19.2 3.2 12.8-6.4 22.4-16 22.4zM672 566.4v-377.6H352V566.4h320z"  horiz-adv-x="1024" />

    
    <glyph glyph-name="sushekaoqin" unicode="&#59011;" d="M508.8 377.6m-448 0a448 448 0 1 1 896 0 448 448 0 1 1-896 0ZM288 544l96 32 256-32h96l-32-96H288zM710.4 579.2h-73.6v25.6c0 9.6-9.6 19.2-19.2 19.2s-19.2-9.6-19.2-19.2v-25.6H416v25.6c0 9.6-9.6 19.2-19.2 19.2s-19.2-9.6-19.2-19.2v-25.6H307.2c-22.4 0-38.4-16-38.4-38.4v-371.2c0-22.4 16-38.4 38.4-38.4h403.2c22.4 0 38.4 16 38.4 38.4V540.8c0 19.2-16 38.4-38.4 38.4z m0-409.6H307.2v259.2h406.4v-259.2z m0 297.6H304v73.6h403.2v-73.6zM473.6 230.4c3.2-3.2 9.6-6.4 16-6.4s12.8 3.2 19.2 6.4l115.2 118.4c3.2 3.2 6.4 9.6 6.4 12.8 0 6.4-3.2 9.6-6.4 12.8-6.4 6.4-9.6 9.6-16 9.6s-9.6-3.2-12.8-6.4l-6.4-6.4-6.4-6.4-12.8-12.8-25.6-25.6c-9.6-9.6-16-19.2-25.6-25.6l-19.2-22.4-6.4-6.4v3.2L480 288l-9.6 9.6c-6.4 6.4-9.6 12.8-16 16l-9.6 12.8c-6.4 6.4-19.2 9.6-25.6 3.2-3.2-3.2-6.4-9.6-9.6-12.8 0-6.4 0-12.8 6.4-16l57.6-70.4z"  horiz-adv-x="1024" />

    
    <glyph glyph-name="xueshengAPP" unicode="&#59012;" d="M828.509091 747.054545c-18.618182 18.618182-46.545455 27.927273-69.818182 27.927273H260.654545c-55.854545 0-102.4-46.545455-102.4-102.4v-595.781818c0-27.927273 9.309091-51.2 27.927273-69.818182 18.618182-18.618182 46.545455-27.927273 69.818182-27.927273h498.036364c27.927273 0 51.2 9.309091 69.818181 27.927273 18.618182 18.618182 27.927273 46.545455 27.927273 69.818182V677.236364c4.654545 27.927273-4.654545 51.2-23.272727 69.818181z m-23.272727-665.6c0-27.927273-23.272727-46.545455-46.545455-46.545454H260.654545c-27.927273 0-46.545455 23.272727-46.545454 46.545454V677.236364c0 13.963636 4.654545 23.272727 13.963636 32.581818 4.654545 9.309091 18.618182 13.963636 32.581818 13.963636h498.036364c27.927273 0 46.545455-23.272727 46.545455-46.545454v-595.781819zM581.818182 132.654545H432.872727c-13.963636 0-27.927273-13.963636-27.927272-27.927272s13.963636-27.927273 27.927272-27.927273h148.945455c13.963636 0 27.927273 13.963636 27.927273 27.927273 0 18.618182-13.963636 27.927273-27.927273 27.927272zM656.290909 677.236364H358.4c-55.854545 0-102.4-46.545455-102.4-102.4v-297.890909c0-55.854545 46.545455-102.4 102.4-102.4h297.890909c55.854545 0 102.4 46.545455 102.4 102.4V579.490909c0 55.854545-46.545455 97.745455-102.4 97.745455z m46.545455-395.636364c0-27.927273-23.272727-46.545455-46.545455-46.545455H358.4c-27.927273 0-46.545455 23.272727-46.545455 46.545455V579.490909c0 27.927273 23.272727 46.545455 46.545455 46.545455h297.890909c27.927273 0 46.545455-23.272727 46.545455-46.545455v-297.890909z"  horiz-adv-x="1024" />

    
    <glyph glyph-name="xueshengjichuxinxiguanli" unicode="&#59013;" d="M795.927273 798.254545H260.654545c-69.818182 0-125.672727-55.854545-125.672727-125.672727v-591.127273c0-69.818182 55.854545-125.672727 125.672727-125.672727h544.581819c69.818182 0 125.672727 65.163636 121.018181 134.981818V672.581818c-4.654545 69.818182-60.509091 125.672727-130.327272 125.672727zM856.436364 104.727273c0-37.236364-32.581818-65.163636-65.163637-65.163637H269.963636c-37.236364 0-65.163636 32.581818-65.163636 65.163637V663.272727c0 37.236364 32.581818 65.163636 65.163636 65.163637h516.654546c37.236364 0 65.163636-32.581818 65.163636-65.163637v-558.545454zM698.181818 514.327273H283.927273c-18.618182 0-32.581818-18.618182-32.581818-37.236364s13.963636-37.236364 37.236363-37.236364H698.181818c18.618182 0 37.236364 13.963636 37.236364 37.236364 0 18.618182-18.618182 37.236364-37.236364 37.236364zM460.8 337.454545H283.927273c-18.618182 0-37.236364-13.963636-37.236364-37.236363 0-18.618182 13.963636-37.236364 37.236364-37.236364h176.872727c18.618182 0 37.236364 13.963636 37.236364 37.236364 0 18.618182-13.963636 37.236364-37.236364 37.236363z"  horiz-adv-x="1024" />

    
    <glyph glyph-name="xueshengrizhi" unicode="&#59014;" d="M242.036364 197.818182c4.654545 4.654545 9.309091 13.963636 9.309091 23.272727s-4.654545 18.618182-9.309091 23.272727c-4.654545 4.654545-13.963636 9.309091-23.272728 9.309091H74.472727c-18.618182 0-32.581818-13.963636-32.581818-32.581818 0-18.618182 13.963636-32.581818 32.581818-32.581818h148.945455c4.654545 0 13.963636 4.654545 18.618182 9.309091zM121.018182 444.509091v-148.945455c0-9.309091 4.654545-18.618182 9.309091-23.272727 4.654545-4.654545 13.963636-9.309091 23.272727-9.309091s18.618182 4.654545 23.272727 9.309091c4.654545 4.654545 9.309091 13.963636 9.309091 23.272727V444.509091c-4.654545 18.618182-18.618182 32.581818-32.581818 32.581818-18.618182 0-32.581818-13.963636-32.581818-32.581818zM74.472727 491.054545h148.945455c9.309091 0 18.618182 4.654545 23.272727 9.309091 4.654545 4.654545 4.654545 13.963636 4.654546 23.272728s-4.654545 18.618182-9.309091 23.272727c-4.654545 4.654545-13.963636 4.654545-18.618182 4.654545H74.472727c-18.618182 0-32.581818-13.963636-32.581818-27.927272 0-18.618182 13.963636-32.581818 32.581818-32.581819zM367.709091 342.109091h302.545454c18.618182 0 32.581818 13.963636 32.581819 32.581818s-13.963636 32.581818-32.581819 32.581818H367.709091c-18.618182 0-32.581818-13.963636-32.581818-32.581818s13.963636-32.581818 32.581818-32.581818zM367.709091 491.054545h302.545454c13.963636 0 27.927273 13.963636 27.927273 32.581819 0 9.309091-4.654545 18.618182-9.309091 23.272727-4.654545 4.654545-13.963636 9.309091-23.272727 9.309091H367.709091c-18.618182-4.654545-32.581818-18.618182-32.581818-32.581818 0-18.618182 13.963636-32.581818 32.581818-32.581819zM367.709091 188.509091h302.545454c18.618182 0 32.581818 13.963636 32.581819 32.581818 0 9.309091-4.654545 18.618182-9.309091 23.272727-4.654545 4.654545-13.963636 9.309091-23.272728 9.309091H367.709091c-18.618182 0-32.581818-13.963636-32.581818-32.581818 0-18.618182 13.963636-32.581818 32.581818-32.581818zM893.672727 472.436364V630.690909C893.672727 700.509091 837.818182 756.363636 768 756.363636H246.690909C176.872727 756.363636 121.018182 700.509091 121.018182 630.690909v-32.581818c0-18.618182 13.963636-32.581818 32.581818-32.581818 18.618182 0 32.581818 13.963636 32.581818 32.581818v32.581818c0 32.581818 27.927273 65.163636 65.163637 65.163636h521.30909c32.581818 0 65.163636-27.927273 65.163637-65.163636v-162.909091c-41.890909-13.963636-69.818182-55.854545-69.818182-102.4 0-46.545455 27.927273-83.781818 69.818182-102.4v-162.909091c0-32.581818-27.927273-65.163636-65.163637-65.163636H246.690909c-32.581818 0-65.163636 27.927273-65.163636 65.163636v37.236364c0 18.618182-13.963636 32.581818-32.581818 32.581818-18.618182 0-32.581818-13.963636-32.581819-32.581818v-37.236364c0-69.818182 55.854545-125.672727 125.672728-125.672727h521.309091c69.818182 0 125.672727 55.854545 125.672727 125.672727v158.254546c18.618182 4.654545 32.581818 13.963636 46.545454 27.927272 18.618182 18.618182 32.581818 46.545455 32.581819 74.472728 4.654545 60.509091-27.927273 97.745455-74.472728 111.709091z m-27.927272-144.290909c-23.272727 0-41.890909 18.618182-41.89091 41.890909s18.618182 41.890909 41.89091 41.890909 41.890909-18.618182 41.890909-41.890909-18.618182-41.890909-41.890909-41.890909z"  horiz-adv-x="1024" />

    
    <glyph glyph-name="xueshengshoufeiqingkuangguanli" unicode="&#59015;" d="M512 384m-448 0a448 448 0 1 1 896 0 448 448 0 1 1-896 0ZM444.8 297.6c-9.6 0-16-6.4-16-16s6.4-16 16-16h51.2v-35.2c0-9.6 6.4-16 16-16s16 6.4 16 16v35.2h51.2c9.6 0 16 6.4 16 16s-6.4 16-16 16h-51.2v35.2h51.2c9.6 0 16 6.4 16 16s-6.4 16-16 16h-41.6l54.4 54.4c6.4 6.4 6.4 19.2 0 25.6-6.4 6.4-19.2 6.4-25.6 0L512 393.6 457.6 448c-6.4 6.4-19.2 6.4-25.6 0-6.4-6.4-6.4-19.2 0-25.6l54.4-54.4h-41.6c-9.6 0-16-6.4-16-16s6.4-16 16-16h51.2v-35.2h-51.2z m0 0M275.2 582.4h473.6v-92.8H275.2zM700.8 604.8H323.2C288 604.8 256 576 256 537.6v-307.2c0-38.4 32-67.2 67.2-67.2h374.4c38.4 0 67.2 32 67.2 67.2v307.2c3.2 38.4-28.8 67.2-64 67.2z m32-374.4c0-19.2-16-35.2-35.2-35.2H323.2c-19.2 0-35.2 16-35.2 35.2v240h444.8v-240z m0 272H291.2v35.2c0 19.2 16 35.2 35.2 35.2h374.4c19.2 0 35.2-16 35.2-35.2v-35.2z m0 0"  horiz-adv-x="1024" />

    
    <glyph glyph-name="xueshengzhuangtai" unicode="&#59016;" d="M912.290909 765.672727h-791.272727c-27.927273 0-46.545455-23.272727-46.545455-46.545454v-558.545455c0-13.963636 4.654545-23.272727 13.963637-32.581818 9.309091-9.309091 18.618182-13.963636 32.581818-13.963636h795.927273c27.927273 0 46.545455 23.272727 46.545454 46.545454v558.545455c0 27.927273-23.272727 46.545455-51.2 46.545454z m-13.963636-577.163636c0-9.309091-4.654545-13.963636-13.963637-13.963636H148.945455c-4.654545 0-9.309091 0-9.309091 4.654545-4.654545 4.654545-4.654545 4.654545-4.654546 9.309091V686.545455c0 9.309091 4.654545 13.963636 13.963637 13.963636H884.363636c9.309091 0 13.963636-4.654545 13.963637-13.963636v-498.036364zM842.472727 58.181818H186.181818c-18.618182 0-32.581818-13.963636-32.581818-32.581818 0-18.618182 13.963636-32.581818 32.581818-32.581818h656.290909c18.618182 0 32.581818 13.963636 32.581818 32.581818 0 18.618182-13.963636 32.581818-32.581818 32.581818zM809.890909 411.927273h-130.327273l-190.836363 181.527272-4.654546 4.654546-144.290909-186.181818H223.418182c-18.618182 0-32.581818-13.963636-32.581818-32.581818 0-18.618182 13.963636-32.581818 32.581818-32.581819H372.363636l121.018182 153.6 162.909091-153.6h153.6c18.618182 0 32.581818 13.963636 32.581818 32.581819 0 18.618182-13.963636 32.581818-32.581818 32.581818z"  horiz-adv-x="1024" />

    
    <glyph glyph-name="xuexiaoxiaoquguanli" unicode="&#59017;" d="M358.4 481.745455H302.545455c-18.618182 0-32.581818-13.963636-32.581819-32.581819 0-18.618182 13.963636-32.581818 32.581819-32.581818h51.2c23.272727 0 37.236364 13.963636 37.236363 32.581818 0 18.618182-13.963636 32.581818-32.581818 32.581819zM358.4 374.690909H302.545455c-18.618182 0-32.581818-13.963636-32.581819-32.581818 0-18.618182 13.963636-32.581818 32.581819-32.581818h51.2c18.618182 0 32.581818 13.963636 32.581818 32.581818 0 9.309091 0 18.618182-4.654546 23.272727-4.654545 4.654545-13.963636 9.309091-23.272727 9.309091zM898.327273 30.254545h-9.309091v237.381819c0 32.581818-18.618182 60.509091-41.890909 74.472727l-139.636364 88.436364V709.818182c0 51.2-41.890909 88.436364-88.436364 88.436363L390.981818 802.909091c-51.2-4.654545-88.436364-46.545455-88.436363-93.090909v-27.927273H223.418182c-51.2 0-88.436364-37.236364-88.436364-88.436364v-567.854545h-9.309091c-18.618182 0-32.581818-13.963636-32.581818-32.581818 0-13.963636 13.963636-27.927273 32.581818-27.927273h772.654546c18.618182 0 32.581818 13.963636 32.581818 32.581818 0 18.618182-13.963636 32.581818-32.581818 32.581818zM423.563636 267.636364v-237.381819H200.145455V593.454545c0 13.963636 9.309091 27.927273 27.927272 27.927273h139.636364V709.818182c0 13.963636 9.309091 27.927273 27.927273 27.927273h228.072727c13.963636 0 27.927273-9.309091 27.927273-27.927273v-260.654546c-13.963636 0-23.272727-4.654545-32.581819-13.963636l-144.290909-93.090909c-32.581818-13.963636-51.2-46.545455-51.2-74.472727z m400.290909-237.381819h-111.70909v107.054546c0 18.618182-13.963636 32.581818-32.581819 32.581818-18.618182 0-32.581818-13.963636-32.581818-32.581818v-107.054546h-158.254545v237.381819c0 9.309091 4.654545 13.963636 9.309091 23.272727l139.636363 93.090909c4.654545 4.654545 4.654545 4.654545 13.963637 4.654545 4.654545 0 9.309091 0 13.963636-4.654545l139.636364-93.090909c9.309091-4.654545 9.309091-9.309091 9.309091-23.272727v-237.381819z"  horiz-adv-x="1024" />

    
    <glyph glyph-name="yikatong" unicode="&#59020;" d="M512 384m-448 0a448 448 0 1 1 896 0 448 448 0 1 1-896 0ZM528 355.2H672v-86.4h-144zM771.2 560c-3.2 6.4-6.4 12.8-12.8 19.2-6.4 6.4-9.6 9.6-16 12.8-6.4 3.2-12.8 3.2-22.4 3.2h-416c-6.4 0-16 0-22.4-3.2l-16-16c-6.4-6.4-9.6-9.6-12.8-16-3.2-6.4-3.2-12.8-3.2-22.4v-307.2c0-6.4 0-16 3.2-22.4 3.2-6.4 6.4-12.8 12.8-16 6.4-6.4 9.6-9.6 16-12.8 6.4-3.2 12.8-3.2 22.4-3.2h416c6.4 0 16 0 22.4 3.2 6.4 3.2 12.8 6.4 16 12.8 6.4 6.4 9.6 9.6 12.8 19.2 3.2 6.4 3.2 12.8 3.2 22.4v307.2c0 3.2 0 9.6-3.2 19.2z m-51.2-348.8h-416c-9.6 0-19.2 9.6-19.2 19.2v214.4H736v-214.4c0-9.6-6.4-19.2-16-19.2z m-416 345.6h416c9.6 0 19.2-9.6 19.2-19.2v-54.4H288v54.4c0 9.6 6.4 19.2 16 19.2zM675.2 374.4h-156.8c-6.4 0-12.8-6.4-12.8-12.8v-89.6c0-6.4 6.4-12.8 12.8-12.8h156.8c6.4 0 12.8 6.4 12.8 12.8v89.6c0 6.4-3.2 12.8-12.8 12.8z m-16-35.2v-41.6c0-3.2-3.2-6.4-6.4-6.4H544c-3.2 0-6.4 3.2-6.4 6.4v41.6c0 3.2 3.2 6.4 6.4 6.4h108.8c3.2-3.2 6.4-3.2 6.4-6.4z"  horiz-adv-x="1024" />

    
    <glyph glyph-name="zhuanyenianjiguanli" unicode="&#59021;" d="M930.909091 551.563636c-4.654545 4.654545-4.654545 9.309091-9.309091 18.618182L884.363636 765.672727c-9.309091 46.545455-46.545455 74.472727-93.090909 74.472728h-9.309091l-195.490909-13.963637h-4.654545c-9.309091 0-18.618182 0-23.272727 4.654546-13.963636 4.654545-23.272727 4.654545-37.236364 4.654545-32.581818 0-60.509091-13.963636-79.127273-37.236364L88.436364 328.145455c-13.963636-23.272727-23.272727-46.545455-18.618182-74.472728 4.654545-27.927273 18.618182-51.2 37.236363-65.163636l325.818182-251.345455c18.618182-13.963636 37.236364-18.618182 60.509091-18.618181 32.581818 0 60.509091 13.963636 79.127273 37.236363L930.909091 425.890909c32.581818 37.236364 27.927273 88.436364 0 125.672727z m-134.981818 279.272728h4.654545-13.963636 9.309091z m-195.490909-65.163637h-23.272728 23.272728z m-69.818182 65.163637s0-4.654545 0 0c-4.654545-4.654545 0 0 0 0z m-37.236364-902.981819h-9.309091 23.272728-13.963637z m386.327273 539.927273l-358.4-470.109091c-4.654545-9.309091-13.963636-13.963636-27.927273-13.963636-9.309091 0-13.963636 4.654545-18.618182 4.654545l-325.818181 251.345455c-13.963636 9.309091-18.618182 32.581818-4.654546 46.545454L502.690909 756.363636c4.654545 9.309091 13.963636 13.963636 27.927273 13.963637h13.963636c13.963636-9.309091 27.927273-13.963636 46.545455-13.963637h9.309091l195.490909 13.963637c13.963636 0 23.272727-9.309091 27.927272-23.272728l37.236364-195.490909c4.654545-18.618182 9.309091-32.581818 23.272727-46.545454 4.654545-9.309091 4.654545-27.927273-4.654545-37.236364zM577.163636 663.272727c-55.854545-27.927273-88.436364-88.436364-69.818181-153.6 13.963636-60.509091 69.818182-102.4 130.327272-102.4h18.618182c37.236364 4.654545 69.818182 23.272727 88.436364 51.2 37.236364 51.2 37.236364 121.018182-4.654546 167.563637-41.890909 51.2-107.054545 65.163636-162.909091 37.236363z m111.709091-158.254545c-18.618182-23.272727-51.2-32.581818-79.127272-18.618182-27.927273 9.309091-41.890909 41.890909-41.89091 69.818182 4.654545 27.927273 27.927273 51.2 55.854546 55.854545h9.309091c23.272727 0 46.545455-13.963636 60.509091-37.236363 13.963636-23.272727 9.309091-51.2-4.654546-69.818182z"  horiz-adv-x="1024" />

    
    <glyph glyph-name="kaoshixitong" unicode="&#59023;" d="M651.636364 39.563636H246.690909c-41.890909 0-83.781818 23.272727-83.781818 60.509091V653.963636c0 37.236364 46.545455 83.781818 83.781818 83.781819h479.418182c37.236364 0 60.509091-41.890909 60.509091-83.781819v-23.272727c0-18.618182 13.963636-27.927273 27.927273-27.927273s27.927273 13.963636 27.927272 27.927273v23.272727c0 69.818182-41.890909 139.636364-116.363636 139.636364H246.690909c-69.818182 0-144.290909-69.818182-144.290909-139.636364v-553.890909c0-27.927273 9.309091-55.854545 32.581818-79.127272 27.927273-27.927273 65.163636-41.890909 107.054546-41.89091h404.945454c13.963636 0 27.927273 13.963636 27.927273 27.927273 4.654545 18.618182-9.309091 32.581818-23.272727 32.581818zM656.290909 565.527273c0 13.963636-13.963636 27.927273-27.927273 27.927272H297.890909c-18.618182 0-27.927273-13.963636-27.927273-27.927272s13.963636-27.927273 27.927273-27.927273h330.472727c13.963636 0 27.927273 9.309091 27.927273 27.927273zM563.2 388.654545c0 13.963636-13.963636 27.927273-27.927273 27.927273H283.927273c-13.963636 0-27.927273-13.963636-27.927273-27.927273s13.963636-27.927273 27.927273-27.927272h251.345454c18.618182 0 27.927273 13.963636 27.927273 27.927272zM297.890909 239.709091c-13.963636 0-27.927273-13.963636-27.927273-27.927273s13.963636-27.927273 27.927273-27.927273h153.6c13.963636 0 27.927273 13.963636 27.927273 27.927273s-13.963636 27.927273-27.927273 27.927273H297.890909zM916.945455 90.763636V453.818182c0 41.890909-23.272727 88.436364-65.163637 88.436363h-93.090909c-41.890909 0-74.472727-46.545455-74.472727-88.436363v-363.054546c0-9.309091 9.309091-18.618182 13.963636-27.927272v-4.654546l65.163637-65.163636c9.309091-13.963636 23.272727-18.618182 41.890909-18.618182 13.963636 0 27.927273 9.309091 41.890909 23.272727l60.509091 65.163637c4.654545 9.309091 4.654545 13.963636 4.654545 23.272727 4.654545 0 4.654545 4.654545 4.654546 4.654545z m-172.218182 372.363637c0 13.963636 9.309091 23.272727 23.272727 23.272727H837.818182c13.963636 0 23.272727-9.309091 23.272727-23.272727v-46.545455H744.727273v46.545455z m116.363636-372.363637l-55.854545-65.163636-65.163637 65.163636v265.309091h121.018182v-265.309091z"  horiz-adv-x="1024" />

    
    <glyph glyph-name="dianzishouju" unicode="&#59024;" d="M512 384m-448 0a448 448 0 1 1 896 0 448 448 0 1 1-896 0ZM528 608v-137.6s54.4-76.8 201.6-35.2L640 544l-64 64h-48zM745.6 432l-3.2 16-38.4 38.4-6.4 9.6c-44.8 44.8-80 83.2-134.4 128h-3.2c-3.2 0-9.6 3.2-12.8 3.2h-176C320 627.2 281.6 592 281.6 544v-320c0-51.2 41.6-96 89.6-96h288c48 0 89.6 44.8 89.6 83.2l-3.2 220.8z m-131.2 6.4c-32 0-60.8 25.6-60.8 54.4V585.6c44.8-38.4 76.8-70.4 115.2-112l32-32 3.2-3.2h-89.6z m0-35.2h96V224c0-32-25.6-60.8-54.4-60.8h-288c-28.8 0-54.4 28.8-54.4 60.8V547.2c0 28.8 22.4 48 54.4 48H518.4v-102.4c3.2-48 48-89.6 96-89.6zM544 256h-160c-12.8 0-19.2 9.6-19.2 19.2 0 12.8 9.6 19.2 19.2 19.2h160c12.8 0 19.2-9.6 19.2-19.2 3.2-9.6-6.4-19.2-19.2-19.2zM480 355.2h-99.2c-12.8 0-19.2 9.6-19.2 19.2 0 12.8 9.6 19.2 19.2 19.2H480c12.8 0 19.2-9.6 19.2-19.2s-6.4-19.2-19.2-19.2z"  horiz-adv-x="1024" />

    
    <glyph glyph-name="guashi" unicode="&#59025;" d="M515.2 384m-448 0a448 448 0 1 1 896 0 448 448 0 1 1-896 0ZM515.2 297.6m-57.6 0a57.6 57.6 0 1 1 115.2 0 57.6 57.6 0 1 1-115.2 0ZM707.2 480h-25.6c0 19.2-6.4 38.4-12.8 54.4-9.6 19.2-19.2 38.4-35.2 54.4-16 16-32 28.8-54.4 38.4-41.6 19.2-89.6 19.2-131.2 0-19.2-9.6-38.4-22.4-54.4-38.4s-28.8-35.2-35.2-54.4c-6.4-16-12.8-35.2-12.8-54.4h-22.4c-25.6 0-48-22.4-48-48v-256c0-25.6 22.4-48 48-48h384c25.6 0 48 22.4 48 48v256c0 25.6-22.4 48-48 48z m-288 83.2c25.6 25.6 57.6 38.4 92.8 38.4 35.2 0 67.2-12.8 92.8-38.4 22.4-22.4 35.2-51.2 38.4-83.2h-262.4c3.2 32 16 60.8 38.4 83.2z m297.6-387.2c0-6.4-3.2-9.6-9.6-9.6h-384c-6.4 0-9.6 3.2-9.6 9.6v256c0 6.4 3.2 9.6 9.6 9.6h384c6.4 0 9.6-3.2 9.6-9.6v-256zM515.2 368c-38.4 0-73.6-32-73.6-73.6s32-73.6 73.6-73.6 73.6 32 73.6 73.6-35.2 73.6-73.6 73.6z m0-112c-22.4 0-41.6 19.2-41.6 41.6s19.2 41.6 41.6 41.6 41.6-19.2 41.6-41.6-19.2-41.6-41.6-41.6z"  horiz-adv-x="1024" />

    
    <glyph glyph-name="jiaoyirizhi" unicode="&#59026;" d="M512 368m-448 0a448 448 0 1 1 896 0 448 448 0 1 1-896 0ZM409.6 249.6h-16c-9.6 0-16 6.4-16 19.2 0 9.6 6.4 19.2 16 19.2h16c9.6 0 16-6.4 16-19.2 0-9.6-6.4-19.2-16-19.2zM409.6 352h-16c-9.6 0-16 6.4-16 19.2 0 9.6 6.4 19.2 16 19.2h16c9.6 0 16-6.4 16-19.2 0-12.8-6.4-19.2-16-19.2zM630.4 249.6h-153.6c-9.6 0-16 6.4-16 19.2 0 9.6 6.4 19.2 16 19.2h153.6c9.6 0 16-6.4 16-19.2 0-9.6-6.4-19.2-16-19.2zM630.4 352h-153.6c-9.6 0-16 6.4-16 19.2 0 9.6 6.4 19.2 16 19.2h153.6c9.6 0 16-6.4 16-19.2 0-12.8-6.4-19.2-16-19.2zM742.4 480H288v96l448-16zM700.8 588.8H323.2C288 588.8 256 560 256 521.6v-307.2c0-38.4 32-67.2 67.2-67.2h374.4c38.4 0 67.2 32 67.2 67.2v307.2c3.2 38.4-28.8 67.2-64 67.2z m32-374.4c0-19.2-16-35.2-35.2-35.2H323.2c-19.2 0-35.2 16-35.2 35.2v240h444.8v-240z m0 272H291.2v35.2c0 19.2 16 35.2 35.2 35.2h374.4c19.2 0 35.2-16 35.2-35.2v-35.2z m0 0"  horiz-adv-x="1024" />

    
    <glyph glyph-name="kaoshishuati" unicode="&#59027;" d="M684.218182 653.963636H223.418182c-41.890909 0-74.472727-37.236364-74.472727-74.472727V58.18181800000002c0-41.890909 32.581818-74.472727 74.472727-74.472727h460.8c41.890909 0 74.472727 32.581818 74.472727 74.472727V579.490909c0 37.236364-32.581818 74.472727-74.472727 74.472727z m18.618182-600.436363c0-4.654545 0-9.309091-4.654546-13.963637-4.654545-4.654545-9.309091-4.654545-13.963636-4.654545H223.418182c-4.654545 0-9.309091 0-13.963637 4.654545-4.654545 4.654545-4.654545 9.309091-4.654545 13.963637V579.490909c0 4.654545 0 9.309091 4.654545 13.963636 4.654545 4.654545 9.309091 4.654545 13.963637 4.654546h460.8c4.654545 0 9.309091 0 13.963636-4.654546 4.654545-4.654545 4.654545-9.309091 4.654546-13.963636v-525.963636zM800.581818 770.327273H339.781818c-41.890909 0-74.472727-32.581818-74.472727-74.472728 0-9.309091 4.654545-18.618182 13.963636-23.272727 9.309091-4.654545 18.618182-4.654545 27.927273 0 9.309091 4.654545 13.963636 13.963636 13.963636 23.272727s9.309091 18.618182 18.618182 18.618182h460.8c9.309091 0 18.618182-9.309091 18.618182-18.618182v-525.963636c0-9.309091-9.309091-18.618182-18.618182-18.618182-13.963636 0-27.927273-13.963636-27.927273-27.927272s13.963636-27.927273 27.927273-27.927273c41.890909 0 74.472727 32.581818 74.472727 74.472727V695.854545c0 41.890909-32.581818 74.472727-74.472727 74.472728zM442.181818 402.618182H651.636364c9.309091 0 18.618182 4.654545 23.272727 13.963636 4.654545 9.309091 4.654545 18.618182 0 27.927273-4.654545 9.309091-13.963636 13.963636-23.272727 13.963636H442.181818c-13.963636 0-27.927273-13.963636-27.927273-27.927272s9.309091-27.927273 27.927273-27.927273zM651.636364 230.39999999999998H442.181818c-13.963636 0-27.927273-13.963636-27.927273-27.927273s13.963636-27.927273 27.927273-27.927272H651.636364c9.309091 0 18.618182 4.654545 23.272727 13.963636 4.654545 9.309091 4.654545 18.618182 0 27.927273-4.654545 9.309091-13.963636 13.963636-23.272727 13.963636zM390.981818 477.090909c-9.309091 9.309091-23.272727 9.309091-32.581818 0l-65.163636-60.509091-32.581819 23.272727c-9.309091 9.309091-23.272727 9.309091-32.581818 0-4.654545-4.654545-9.309091-9.309091-9.309091-13.963636 0-4.654545 4.654545-13.963636 9.309091-13.963636l46.545455-41.890909c4.654545-4.654545 9.309091-4.654545 18.618182-4.654546 4.654545 0 13.963636 0 18.618181 4.654546l83.781819 74.472727c4.654545 4.654545 9.309091 9.309091 9.309091 13.963636-4.654545 4.654545-9.309091 13.963636-13.963637 18.618182zM344.436364 207.12727299999995l32.581818 32.581818c9.309091 9.309091 9.309091 23.272727 0 32.581818-9.309091 9.309091-23.272727 9.309091-32.581818 0l-32.581819-32.581818-32.581818 32.581818c-9.309091 9.309091-23.272727 9.309091-32.581818 0-9.309091-9.309091-9.309091-23.272727 0-32.581818l32.581818-32.581818-32.581818-32.581818c-9.309091-9.309091-9.309091-23.272727 0-32.581819 9.309091-9.309091 23.272727-9.309091 32.581818 0l32.581818 32.581819 32.581819-32.581819c9.309091-9.309091 23.272727-9.309091 32.581818 0 9.309091 9.309091 9.309091 23.272727 0 32.581819l-32.581818 32.581818z"  horiz-adv-x="1024" />

    
    <glyph glyph-name="xuexiaoguanli" unicode="&#59028;" d="M349.090909 532.945455H288.581818c-13.963636 0-27.927273-13.963636-27.927273-27.927273s13.963636-27.927273 27.927273-27.927273h60.509091c13.963636 0 27.927273 13.963636 27.927273 27.927273s-13.963636 27.927273-27.927273 27.927273zM349.090909 407.272727H288.581818c-13.963636 0-27.927273-13.963636-27.927273-27.927272s13.963636-27.927273 27.927273-27.927273h60.509091c13.963636 0 27.927273 13.963636 27.927273 27.927273s-13.963636 27.927273-27.927273 27.927272zM349.090909 155.927273H288.581818c-13.963636 0-27.927273-13.963636-27.927273-27.927273s13.963636-23.272727 27.927273-23.272727h60.509091c13.963636 0 27.927273 13.963636 27.927273 27.927272s-13.963636 23.272727-27.927273 23.272728zM349.090909 281.6H288.581818c-13.963636 0-27.927273-9.309091-27.927273-27.927273s13.963636-27.927273 27.927273-27.927272h60.509091c13.963636 0 27.927273 13.963636 27.927273 27.927272 0 18.618182-13.963636 27.927273-27.927273 27.927273zM349.090909 658.618182H288.581818c-13.963636 0-27.927273-13.963636-27.927273-27.927273s13.963636-27.927273 27.927273-27.927273h60.509091c13.963636 0 27.927273 13.963636 27.927273 27.927273s-13.963636 27.927273-27.927273 27.927273zM446.836364 602.763636h60.509091c13.963636 0 27.927273 13.963636 27.927272 27.927273s-13.963636 27.927273-27.927272 27.927273H446.836364c-13.963636 0-27.927273-13.963636-27.927273-27.927273 4.654545-13.963636 13.963636-27.927273 27.927273-27.927273zM507.345455 532.945455H446.836364c-13.963636 0-27.927273-13.963636-27.927273-27.927273s13.963636-27.927273 27.927273-27.927273h60.509091c13.963636 0 27.927273 13.963636 27.927272 27.927273s-9.309091 27.927273-27.927272 27.927273zM507.345455 407.272727H446.836364c-13.963636 0-27.927273-13.963636-27.927273-27.927272s13.963636-27.927273 27.927273-27.927273h60.509091c13.963636 0 27.927273 13.963636 27.927272 27.927273s-9.309091 27.927273-27.927272 27.927272zM507.345455 155.927273H446.836364c-13.963636 0-27.927273-13.963636-27.927273-27.927273s13.963636-23.272727 27.927273-23.272727h60.509091c13.963636 0 27.927273 13.963636 27.927272 27.927272s-9.309091 23.272727-27.927272 23.272728zM507.345455 281.6H446.836364c-13.963636 0-27.927273-9.309091-27.927273-27.927273s13.963636-27.927273 27.927273-27.927272h60.509091c13.963636 0 27.927273 13.963636 27.927272 27.927272 0 18.618182-9.309091 27.927273-27.927272 27.927273zM921.6 16.290909h-18.618182V584.145455c0 13.963636-9.309091 23.272727-18.618182 23.272727l-242.036363 65.163636V774.981818c0 13.963636-13.963636 27.927273-27.927273 27.927273H181.527273c-13.963636 0-27.927273-13.963636-27.927273-27.927273v-758.690909H139.636364c-13.963636 0-27.927273-13.963636-27.927273-27.927273s13.963636-23.272727 27.927273-23.272727h781.963636c13.963636 0 27.927273 13.963636 27.927273 27.927273s-13.963636 23.272727-27.927273 23.272727zM209.454545 751.709091h381.672728v-730.763636H209.454545V751.709091z m432.872728-735.418182v605.090909L851.781818 570.181818v-549.236363h-209.454545z"  horiz-adv-x="1024" />

    
    <glyph glyph-name="xuexiaojiaofei" unicode="&#59029;" d="M916.945455 151.272727c-60.509091 32.581818-97.745455 65.163636-125.672728 102.4-9.309091 13.963636-18.618182 23.272727-32.581818 32.581818 13.963636 27.927273 23.272727 55.854545 32.581818 83.781819 32.581818 130.327273-18.618182 269.963636-125.672727 353.745454-107.054545 83.781818-251.345455 102.4-372.363636 41.890909C172.218182 709.818182 93.090909 588.8 93.090909 453.818182c0-46.545455 9.309091-93.090909 27.927273-134.981818 4.654545-13.963636 23.272727-23.272727 37.236363-13.963637 13.963636 4.654545 23.272727 23.272727 13.963637 37.236364-51.2 121.018182-9.309091 269.963636 102.4 349.090909 111.709091 79.127273 265.309091 74.472727 367.709091-18.618182s130.327273-242.036364 65.163636-363.054545h-41.890909c-18.618182-4.654545-148.945455-27.927273-195.490909-41.890909-18.618182-4.654545-37.236364-18.618182-46.545455-37.236364-9.309091-13.963636-9.309091-27.927273-4.654545-41.890909 13.963636-37.236364 41.890909-55.854545 79.127273-46.545455 18.618182 4.654545 88.436364 13.963636 107.054545 13.963637 0 0 4.654545-4.654545 0-4.654546-13.963636-4.654545-83.781818-13.963636-107.054545-23.272727-32.581818-9.309091-60.509091-4.654545-102.4 18.618182-23.272727 13.963636-167.563636 74.472727-186.181819 83.781818-27.927273 13.963636-55.854545 13.963636-74.472727-4.654545-18.618182-13.963636-32.581818-37.236364-27.927273-60.509091 0-23.272727 13.963636-46.545455 37.236364-55.854546 32.581818-23.272727 237.381818-125.672727 269.963636-144.290909 18.618182-13.963636 41.890909-18.618182 65.163637-18.618182 9.309091 0 23.272727 0 32.581818 4.654546 18.618182 4.654545 186.181818 32.581818 214.109091 37.236363 13.963636 0 23.272727 0 37.236364-9.309091 13.963636-9.309091 65.163636-41.890909 65.163636-41.890909 9.309091-4.654545 18.618182-4.654545 27.927273 0 9.309091 4.654545 13.963636 13.963636 13.963636 23.272728s-4.654545 18.618182-13.963636 27.927272c0 0-51.2 32.581818-65.163637 41.890909-23.272727 13.963636-51.2 23.272727-74.472727 18.618182-32.581818-4.654545-195.490909-32.581818-218.763636-37.236363-18.618182-4.654545-41.890909 0-55.854546 9.309091-32.581818 18.618182-237.381818 125.672727-269.963636 144.290909-4.654545 4.654545-9.309091 4.654545-9.309091 13.963636 0 4.654545 4.654545 9.309091 9.309091 13.963636H186.181818c18.618182-9.309091 162.909091-69.818182 186.181818-83.781818 41.890909-23.272727 88.436364-41.890909 144.290909-23.272727 18.618182 4.654545 88.436364 18.618182 102.4 18.618182 23.272727 4.654545 41.890909 18.618182 46.545455 37.236363 9.309091 18.618182 4.654545 41.890909-9.309091 60.509091-9.309091 9.309091-27.927273 27.927273-60.509091 23.272728-13.963636-4.654545-88.436364-13.963636-107.054545-18.618182-4.654545 0-4.654545 9.309091-4.654546 9.309091 46.545455 9.309091 176.872727 37.236364 195.490909 41.890909 27.927273 4.654545 55.854545-4.654545 69.818182-27.927273 32.581818-46.545455 79.127273-83.781818 144.290909-121.018182 13.963636-9.309091 32.581818-4.654545 37.236364 13.963637 4.654545 4.654545 0 23.272727-13.963636 27.927272zM325.818182 439.854545c-18.618182 0-32.581818-13.963636-32.581818-32.581818 0-18.618182 13.963636-32.581818 32.581818-32.581818h83.781818v-46.545454c0-18.618182 13.963636-32.581818 32.581818-32.581819 18.618182 0 32.581818 13.963636 32.581818 32.581819v46.545454H558.545455c18.618182 0 32.581818 13.963636 32.581818 32.581818 0 18.618182-13.963636 32.581818-32.581818 32.581818h-83.781819v41.89091H558.545455c18.618182 0 32.581818 13.963636 32.581818 32.581818 0 18.618182-13.963636 32.581818-32.581818 32.581818h-69.818182l79.127272 79.127273c13.963636 13.963636 13.963636 32.581818 0 41.890909-13.963636 13.963636-32.581818 13.963636-41.890909 0L442.181818 588.8 363.054545 667.927273c-13.963636 13.963636-32.581818 13.963636-41.890909 0-13.963636-13.963636-13.963636-32.581818 0-41.890909l79.127273-79.127273H325.818182c-18.618182 0-32.581818-13.963636-32.581818-32.581818 0-18.618182 13.963636-32.581818 32.581818-32.581818h83.781818v-41.89091H325.818182z"  horiz-adv-x="1024" />

    
    <glyph glyph-name="xuexiaoxiaoquguanli-copy" unicode="&#59030;" d="M358.4 481.745455H302.545455c-18.618182 0-32.581818-13.963636-32.581819-32.581819 0-18.618182 13.963636-32.581818 32.581819-32.581818h51.2c23.272727 0 37.236364 13.963636 37.236363 32.581818 0 18.618182-13.963636 32.581818-32.581818 32.581819zM358.4 374.69090900000003H302.545455c-18.618182 0-32.581818-13.963636-32.581819-32.581818 0-18.618182 13.963636-32.581818 32.581819-32.581818h51.2c18.618182 0 32.581818 13.963636 32.581818 32.581818 0 9.309091 0 18.618182-4.654546 23.272727-4.654545 4.654545-13.963636 9.309091-23.272727 9.309091zM898.327273 30.254545000000007h-9.309091v237.381819c0 32.581818-18.618182 60.509091-41.890909 74.472727l-139.636364 88.436364V709.818182c0 51.2-41.890909 88.436364-88.436364 88.436363L390.981818 802.909091c-51.2-4.654545-88.436364-46.545455-88.436363-93.090909v-27.927273H223.418182c-51.2 0-88.436364-37.236364-88.436364-88.436364v-567.854545h-9.309091c-18.618182 0-32.581818-13.963636-32.581818-32.581818 0-13.963636 13.963636-27.927273 32.581818-27.927273h772.654546c18.618182 0 32.581818 13.963636 32.581818 32.581818 0 18.618182-13.963636 32.581818-32.581818 32.581818zM423.563636 267.63636399999996v-237.381819H200.145455V593.454545c0 13.963636 9.309091 27.927273 27.927272 27.927273h139.636364V709.818182c0 13.963636 9.309091 27.927273 27.927273 27.927273h228.072727c13.963636 0 27.927273-9.309091 27.927273-27.927273v-260.654546c-13.963636 0-23.272727-4.654545-32.581819-13.963636l-144.290909-93.090909c-32.581818-13.963636-51.2-46.545455-51.2-74.472727z m400.290909-237.381819h-111.70909v107.054546c0 18.618182-13.963636 32.581818-32.581819 32.581818-18.618182 0-32.581818-13.963636-32.581818-32.581818v-107.054546h-158.254545v237.381819c0 9.309091 4.654545 13.963636 9.309091 23.272727l139.636363 93.090909c4.654545 4.654545 4.654545 4.654545 13.963637 4.654545 4.654545 0 9.309091 0 13.963636-4.654545l139.636364-93.090909c9.309091-4.654545 9.309091-9.309091 9.309091-23.272727v-237.381819z"  horiz-adv-x="1024" />

    
    <glyph glyph-name="zhuanyenianjiguanli-copy" unicode="&#59031;" d="M930.909091 551.563636c-4.654545 4.654545-4.654545 9.309091-9.309091 18.618182L884.363636 765.672727c-9.309091 46.545455-46.545455 74.472727-93.090909 74.472728h-9.309091l-195.490909-13.963637h-4.654545c-9.309091 0-18.618182 0-23.272727 4.654546-13.963636 4.654545-23.272727 4.654545-37.236364 4.654545-32.581818 0-60.509091-13.963636-79.127273-37.236364L88.436364 328.14545499999997c-13.963636-23.272727-23.272727-46.545455-18.618182-74.472728 4.654545-27.927273 18.618182-51.2 37.236363-65.163636l325.818182-251.345455c18.618182-13.963636 37.236364-18.618182 60.509091-18.618181 32.581818 0 60.509091 13.963636 79.127273 37.236363L930.909091 425.890909c32.581818 37.236364 27.927273 88.436364 0 125.672727z m-134.981818 279.272728h4.654545-13.963636 9.309091z m-195.490909-65.163637h-23.272728 23.272728z m-69.818182 65.163637s0-4.654545 0 0c-4.654545-4.654545 0 0 0 0z m-37.236364-902.981819h-9.309091 23.272728-13.963637z m386.327273 539.927273l-358.4-470.109091c-4.654545-9.309091-13.963636-13.963636-27.927273-13.963636-9.309091 0-13.963636 4.654545-18.618182 4.654545l-325.818181 251.345455c-13.963636 9.309091-18.618182 32.581818-4.654546 46.545454L502.690909 756.363636c4.654545 9.309091 13.963636 13.963636 27.927273 13.963637h13.963636c13.963636-9.309091 27.927273-13.963636 46.545455-13.963637h9.309091l195.490909 13.963637c13.963636 0 23.272727-9.309091 27.927272-23.272728l37.236364-195.490909c4.654545-18.618182 9.309091-32.581818 23.272727-46.545454 4.654545-9.309091 4.654545-27.927273-4.654545-37.236364zM577.163636 663.272727c-55.854545-27.927273-88.436364-88.436364-69.818181-153.6 13.963636-60.509091 69.818182-102.4 130.327272-102.4h18.618182c37.236364 4.654545 69.818182 23.272727 88.436364 51.2 37.236364 51.2 37.236364 121.018182-4.654546 167.563637-41.890909 51.2-107.054545 65.163636-162.909091 37.236363z m111.709091-158.254545c-18.618182-23.272727-51.2-32.581818-79.127272-18.618182-27.927273 9.309091-41.890909 41.890909-41.89091 69.818182 4.654545 27.927273 27.927273 51.2 55.854546 55.854545h9.309091c23.272727 0 46.545455-13.963636 60.509091-37.236363 13.963636-23.272727 9.309091-51.2-4.654546-69.818182z"  horiz-adv-x="1024" />

    
    <glyph glyph-name="xueshengzhuangtai-copy" unicode="&#59032;" d="M912.290909 765.672727h-791.272727c-27.927273 0-46.545455-23.272727-46.545455-46.545454v-558.545455c0-13.963636 4.654545-23.272727 13.963637-32.581818 9.309091-9.309091 18.618182-13.963636 32.581818-13.963636h795.927273c27.927273 0 46.545455 23.272727 46.545454 46.545454v558.545455c0 27.927273-23.272727 46.545455-51.2 46.545454z m-13.963636-577.163636c0-9.309091-4.654545-13.963636-13.963637-13.963636H148.945455c-4.654545 0-9.309091 0-9.309091 4.654545-4.654545 4.654545-4.654545 4.654545-4.654546 9.309091V686.545455c0 9.309091 4.654545 13.963636 13.963637 13.963636H884.363636c9.309091 0 13.963636-4.654545 13.963637-13.963636v-498.036364zM842.472727 58.18181800000002H186.181818c-18.618182 0-32.581818-13.963636-32.581818-32.581818 0-18.618182 13.963636-32.581818 32.581818-32.581818h656.290909c18.618182 0 32.581818 13.963636 32.581818 32.581818 0 18.618182-13.963636 32.581818-32.581818 32.581818zM809.890909 411.927273h-130.327273l-190.836363 181.527272-4.654546 4.654546-144.290909-186.181818H223.418182c-18.618182 0-32.581818-13.963636-32.581818-32.581818 0-18.618182 13.963636-32.581818 32.581818-32.581819H372.363636l121.018182 153.6 162.909091-153.6h153.6c18.618182 0 32.581818 13.963636 32.581818 32.581819 0 18.618182-13.963636 32.581818-32.581818 32.581818z"  horiz-adv-x="1024" />

    
    <glyph glyph-name="banjiguanli-copy" unicode="&#59033;" d="M302.545455 337.45454500000005h181.527272c18.618182 0 32.581818 13.963636 32.581818 32.581819s-13.963636 32.581818-32.581818 32.581818H302.545455c-18.618182 0-32.581818-13.963636-32.581819-32.581818-4.654545-18.618182 9.309091-32.581818 32.581819-32.581819zM302.545455 179.20000000000005h381.672727c18.618182 0 32.581818 13.963636 32.581818 32.581818s-13.963636 32.581818-32.581818 32.581818H302.545455c-18.618182 0-32.581818-13.963636-32.581819-32.581818-4.654545-18.618182 9.309091-32.581818 32.581819-32.581818zM865.745455 607.418182H698.181818V719.1272730000001h195.490909c18.618182 0 32.581818 13.963636 32.581818 32.581818 0 18.618182-13.963636 32.581818-32.581818 32.581818h-744.727272c-18.618182 0-32.581818-13.963636-32.581819-32.581818 0-18.618182 13.963636-32.581818 32.581819-32.581818h167.563636v-111.709091H167.563636c-32.581818 0-55.854545-23.272727-55.854545-55.854546v-521.309091c0-32.581818 23.272727-55.854545 55.854545-55.854545h698.181819c32.581818 0 55.854545 23.272727 55.854545 55.854545V551.563636c0 32.581818-23.272727 55.854545-55.854545 55.854546zM381.672727 719.1272730000001h246.690909v-111.709091H381.672727V719.1272730000001z m474.763637-679.563637H176.872727V542.254545h674.909091v-502.690909z"  horiz-adv-x="1024" />

    
    <glyph glyph-name="xueshengrizhi-copy" unicode="&#59034;" d="M242.036364 197.81818199999998c4.654545 4.654545 9.309091 13.963636 9.309091 23.272727s-4.654545 18.618182-9.309091 23.272727c-4.654545 4.654545-13.963636 9.309091-23.272728 9.309091H74.472727c-18.618182 0-32.581818-13.963636-32.581818-32.581818 0-18.618182 13.963636-32.581818 32.581818-32.581818h148.945455c4.654545 0 13.963636 4.654545 18.618182 9.309091zM121.018182 444.509091v-148.945455c0-9.309091 4.654545-18.618182 9.309091-23.272727 4.654545-4.654545 13.963636-9.309091 23.272727-9.309091s18.618182 4.654545 23.272727 9.309091c4.654545 4.654545 9.309091 13.963636 9.309091 23.272727V444.509091c-4.654545 18.618182-18.618182 32.581818-32.581818 32.581818-18.618182 0-32.581818-13.963636-32.581818-32.581818zM74.472727 491.054545h148.945455c9.309091 0 18.618182 4.654545 23.272727 9.309091 4.654545 4.654545 4.654545 13.963636 4.654546 23.272728s-4.654545 18.618182-9.309091 23.272727c-4.654545 4.654545-13.963636 4.654545-18.618182 4.654545H74.472727c-18.618182 0-32.581818-13.963636-32.581818-27.927272 0-18.618182 13.963636-32.581818 32.581818-32.581819zM367.709091 342.10909100000003h302.545454c18.618182 0 32.581818 13.963636 32.581819 32.581818s-13.963636 32.581818-32.581819 32.581818H367.709091c-18.618182 0-32.581818-13.963636-32.581818-32.581818s13.963636-32.581818 32.581818-32.581818zM367.709091 491.054545h302.545454c13.963636 0 27.927273 13.963636 27.927273 32.581819 0 9.309091-4.654545 18.618182-9.309091 23.272727-4.654545 4.654545-13.963636 9.309091-23.272727 9.309091H367.709091c-18.618182-4.654545-32.581818-18.618182-32.581818-32.581818 0-18.618182 13.963636-32.581818 32.581818-32.581819zM367.709091 188.509091h302.545454c18.618182 0 32.581818 13.963636 32.581819 32.581818 0 9.309091-4.654545 18.618182-9.309091 23.272727-4.654545 4.654545-13.963636 9.309091-23.272728 9.309091H367.709091c-18.618182 0-32.581818-13.963636-32.581818-32.581818 0-18.618182 13.963636-32.581818 32.581818-32.581818zM893.672727 472.436364V630.6909089999999C893.672727 700.509091 837.818182 756.363636 768 756.363636H246.690909C176.872727 756.363636 121.018182 700.509091 121.018182 630.6909089999999v-32.581818c0-18.618182 13.963636-32.581818 32.581818-32.581818 18.618182 0 32.581818 13.963636 32.581818 32.581818v32.581818c0 32.581818 27.927273 65.163636 65.163637 65.163636h521.30909c32.581818 0 65.163636-27.927273 65.163637-65.163636v-162.909091c-41.890909-13.963636-69.818182-55.854545-69.818182-102.4 0-46.545455 27.927273-83.781818 69.818182-102.4v-162.909091c0-32.581818-27.927273-65.163636-65.163637-65.163636H246.690909c-32.581818 0-65.163636 27.927273-65.163636 65.163636v37.236364c0 18.618182-13.963636 32.581818-32.581818 32.581818-18.618182 0-32.581818-13.963636-32.581819-32.581818v-37.236364c0-69.818182 55.854545-125.672727 125.672728-125.672727h521.309091c69.818182 0 125.672727 55.854545 125.672727 125.672727v158.254546c18.618182 4.654545 32.581818 13.963636 46.545454 27.927272 18.618182 18.618182 32.581818 46.545455 32.581819 74.472728 4.654545 60.509091-27.927273 97.745455-74.472728 111.709091z m-27.927272-144.290909c-23.272727 0-41.890909 18.618182-41.89091 41.890909s18.618182 41.890909 41.89091 41.890909 41.890909-18.618182 41.890909-41.890909-18.618182-41.890909-41.890909-41.890909z"  horiz-adv-x="1024" />

    
    <glyph glyph-name="xueshengjichuxinxiguanli-copy" unicode="&#59035;" d="M795.927273 798.254545H260.654545c-69.818182 0-125.672727-55.854545-125.672727-125.672727v-591.127273c0-69.818182 55.854545-125.672727 125.672727-125.672727h544.581819c69.818182 0 125.672727 65.163636 121.018181 134.981818V672.581818c-4.654545 69.818182-60.509091 125.672727-130.327272 125.672727zM856.436364 104.72727299999997c0-37.236364-32.581818-65.163636-65.163637-65.163637H269.963636c-37.236364 0-65.163636 32.581818-65.163636 65.163637V663.272727c0 37.236364 32.581818 65.163636 65.163636 65.163637h516.654546c37.236364 0 65.163636-32.581818 65.163636-65.163637v-558.545454zM698.181818 514.327273H283.927273c-18.618182 0-32.581818-18.618182-32.581818-37.236364s13.963636-37.236364 37.236363-37.236364H698.181818c18.618182 0 37.236364 13.963636 37.236364 37.236364 0 18.618182-18.618182 37.236364-37.236364 37.236364zM460.8 337.45454500000005H283.927273c-18.618182 0-37.236364-13.963636-37.236364-37.236363 0-18.618182 13.963636-37.236364 37.236364-37.236364h176.872727c18.618182 0 37.236364 13.963636 37.236364 37.236364 0 18.618182-13.963636 37.236364-37.236364 37.236363z"  horiz-adv-x="1024" />

    
    <glyph glyph-name="kaoshixitong-copy" unicode="&#59036;" d="M651.636364 39.563635999999974H246.690909c-41.890909 0-83.781818 23.272727-83.781818 60.509091V653.963636c0 37.236364 46.545455 83.781818 83.781818 83.781819h479.418182c37.236364 0 60.509091-41.890909 60.509091-83.781819v-23.272727c0-18.618182 13.963636-27.927273 27.927273-27.927273s27.927273 13.963636 27.927272 27.927273v23.272727c0 69.818182-41.890909 139.636364-116.363636 139.636364H246.690909c-69.818182 0-144.290909-69.818182-144.290909-139.636364v-553.890909c0-27.927273 9.309091-55.854545 32.581818-79.127272 27.927273-27.927273 65.163636-41.890909 107.054546-41.89091h404.945454c13.963636 0 27.927273 13.963636 27.927273 27.927273 4.654545 18.618182-9.309091 32.581818-23.272727 32.581818zM656.290909 565.5272729999999c0 13.963636-13.963636 27.927273-27.927273 27.927272H297.890909c-18.618182 0-27.927273-13.963636-27.927273-27.927272s13.963636-27.927273 27.927273-27.927273h330.472727c13.963636 0 27.927273 9.309091 27.927273 27.927273zM563.2 388.654545c0 13.963636-13.963636 27.927273-27.927273 27.927273H283.927273c-13.963636 0-27.927273-13.963636-27.927273-27.927273s13.963636-27.927273 27.927273-27.927272h251.345454c18.618182 0 27.927273 13.963636 27.927273 27.927272zM297.890909 239.70909099999994c-13.963636 0-27.927273-13.963636-27.927273-27.927273s13.963636-27.927273 27.927273-27.927273h153.6c13.963636 0 27.927273 13.963636 27.927273 27.927273s-13.963636 27.927273-27.927273 27.927273H297.890909zM916.945455 90.76363600000002V453.818182c0 41.890909-23.272727 88.436364-65.163637 88.436363h-93.090909c-41.890909 0-74.472727-46.545455-74.472727-88.436363v-363.054546c0-9.309091 9.309091-18.618182 13.963636-27.927272v-4.654546l65.163637-65.163636c9.309091-13.963636 23.272727-18.618182 41.890909-18.618182 13.963636 0 27.927273 9.309091 41.890909 23.272727l60.509091 65.163637c4.654545 9.309091 4.654545 13.963636 4.654545 23.272727 4.654545 0 4.654545 4.654545 4.654546 4.654545z m-172.218182 372.363637c0 13.963636 9.309091 23.272727 23.272727 23.272727H837.818182c13.963636 0 23.272727-9.309091 23.272727-23.272727v-46.545455H744.727273v46.545455z m116.363636-372.363637l-55.854545-65.163636-65.163637 65.163636v265.309091h121.018182v-265.309091z"  horiz-adv-x="1024" />

    
    <glyph glyph-name="AIpaike-copy" unicode="&#59037;" d="M814.545455 709.818182H698.181818v32.581818c0 18.618182-13.963636 27.927273-27.927273 27.927273-18.618182 0-27.927273-13.963636-27.927272-27.927273V709.818182H395.636364v32.581818c0 18.618182-13.963636 27.927273-27.927273 27.927273-18.618182 0-32.581818-13.963636-32.581818-27.927273V709.818182H218.763636C153.6 709.818182 97.745455 658.6181819999999 97.745455 593.454545v-479.418181c0-65.163636 55.854545-121.018182 121.018181-121.018182h600.436364c65.163636 0 121.018182 55.854545 121.018182 121.018182V593.454545C935.563636 658.6181819999999 879.709091 709.818182 814.545455 709.818182z m60.50909-595.781818c0-32.581818-27.927273-60.509091-60.50909-60.509091H218.763636c-32.581818 0-60.509091 27.927273-60.509091 60.509091V472.436364h716.8v-358.4z m0 418.909091H158.254545V593.454545c0 32.581818 27.927273 60.509091 60.509091 60.509091h121.018182v-27.927272c0-18.618182 13.963636-27.927273 27.927273-27.927273 18.618182 0 27.927273 13.963636 27.927273 27.927273v27.927272h237.381818v-27.927272c0-18.618182 13.963636-27.927273 27.927273-27.927273 18.618182 0 27.927273 13.963636 27.927272 27.927273v27.927272h121.018182c32.581818 0 60.509091-27.927273 60.509091-60.509091v-60.50909zM488.727273 290.909091h60.509091c18.618182 0 27.927273 13.963636 27.927272 27.927273 0 18.618182-13.963636 27.927273-27.927272 27.927272h-60.509091c-18.618182 0-27.927273-13.963636-27.927273-27.927272-4.654545-13.963636 9.309091-27.927273 27.927273-27.927273zM488.727273 174.54545499999995h60.509091c18.618182 0 27.927273 13.963636 27.927272 27.927272 0 18.618182-13.963636 27.927273-27.927272 27.927273h-60.509091c-18.618182 0-27.927273-13.963636-27.927273-27.927273-4.654545-13.963636 9.309091-27.927273 27.927273-27.927272zM307.2 174.54545499999995h60.509091c18.618182 0 27.927273 13.963636 27.927273 27.927272 0 18.618182-13.963636 27.927273-27.927273 27.927273H307.2c-18.618182 0-27.927273-13.963636-27.927273-27.927273s9.309091-27.927273 27.927273-27.927272zM665.6 290.909091h60.509091c18.618182 0 27.927273 13.963636 27.927273 27.927273 0 18.618182-13.963636 27.927273-27.927273 27.927272h-60.509091c-18.618182 0-27.927273-13.963636-27.927273-27.927272s13.963636-27.927273 27.927273-27.927273zM307.2 290.909091h60.509091c18.618182 0 27.927273 13.963636 27.927273 27.927273 0 18.618182-13.963636 27.927273-27.927273 27.927272H307.2c-18.618182 4.654545-27.927273-9.309091-27.927273-23.272727 0-18.618182 9.309091-32.581818 27.927273-32.581818zM665.6 174.54545499999995h60.509091c18.618182 0 27.927273 13.963636 27.927273 27.927272 0 18.618182-13.963636 27.927273-27.927273 27.927273h-60.509091c-18.618182 0-27.927273-13.963636-27.927273-27.927273s13.963636-27.927273 27.927273-27.927272z"  horiz-adv-x="1024" />

    
    <glyph glyph-name="wenjianguanli-copy" unicode="&#59038;" d="M749.381818 258.327273h-465.454545c-9.309091 0-23.272727-4.654545-27.927273-13.963637-4.654545-9.309091-4.654545-23.272727 0-32.581818 4.654545-9.309091 13.963636-13.963636 27.927273-13.963636h465.454545c13.963636 0 23.272727 4.654545 27.927273 13.963636 4.654545 9.309091 4.654545 23.272727 0 32.581818-4.654545 9.309091-18.618182 13.963636-27.927273 13.963637zM833.163636 635.345455h-349.090909v23.272727c0 51.2-41.890909 88.436364-88.436363 88.436363H200.145455c-51.2 0-88.436364-37.236364-93.09091-88.436363v-577.163637c0-51.2 41.890909-88.436364 88.436364-88.436363h637.672727c51.2 0 88.436364 41.890909 88.436364 88.436363v465.454546c4.654545 46.545455-37.236364 88.436364-88.436364 88.436364z m27.927273-553.89091c0-13.963636-13.963636-27.927273-27.927273-27.927272H200.145455c-13.963636 0-27.927273 13.963636-27.927273 27.927272V658.6181819999999c0 13.963636 13.963636 27.927273 27.927273 27.927273h200.145454c13.963636 0 27.927273-13.963636 27.927273-27.927273v-55.854546c-4.654545-18.618182 9.309091-32.581818 27.927273-32.581818h377.018181c13.963636 0 27.927273-13.963636 27.927273-27.927273v-460.8zM749.381818 430.545455h-465.454545c-9.309091 0-23.272727-4.654545-27.927273-13.963637-4.654545-9.309091-4.654545-23.272727 0-32.581818 4.654545-9.309091 13.963636-13.963636 27.927273-13.963636h465.454545c13.963636 0 23.272727 4.654545 27.927273 13.963636 4.654545 9.309091 4.654545 23.272727 0 32.581818-4.654545 9.309091-18.618182 13.963636-27.927273 13.963637z"  horiz-adv-x="1024" />

    


  </font>
</defs>
</svg>
